<?xml version="1.0" standalone="no"?><!DOCTYPE svg PUBLIC "-//W3C//DTD SVG 1.1//EN" "http://www.w3.org/Graphics/SVG/1.1/DTD/svg11.dtd"><svg t="1557478171370" class="icon" style="" viewBox="0 0 1024 1024" version="1.1" xmlns="http://www.w3.org/2000/svg" p-id="3005" xmlns:xlink="http://www.w3.org/1999/xlink" width="16" height="16"><defs><style type="text/css"></style></defs><path d="M850.622159 29.124904c-31.331849-33.126756-82.334296-33.126756-113.660501 0L672.525631 97.602293l151.494653 160.582075 64.441672-68.454812c31.676155-33.143689 31.676155-87.019116 0-120.168449l-37.839797-40.436203z m-208.683321 100.514783l-421.684577 447.919568V587.01356h36.411774v36.417418h36.417418v36.417418h36.417418v36.411774h36.411774V748.318113l427.882085-458.090707-151.855892-160.587719zM183.836843 616.516635l-15.663103 16.379936-57.166089 219.238276 223.21755-69.555462 12.378084-13.484379h-17.102414v-36.411774h-36.417418v-36.417418h-36.417418v-36.411774h-36.411774v-36.417418H183.836843v-6.919987z m-43.704289 338.672958v68.810407h758.528762v-68.810407H140.132554z" p-id="3006"></path></svg>