<?xml version="1.0" standalone="no"?><!DOCTYPE svg PUBLIC "-//W3C//DTD SVG 1.1//EN" "http://www.w3.org/Graphics/SVG/1.1/DTD/svg11.dtd"><svg t="1560327877002" class="icon" style="" viewBox="0 0 1024 1024" version="1.1" xmlns="http://www.w3.org/2000/svg" p-id="34928" xmlns:xlink="http://www.w3.org/1999/xlink" width="16" height="16"><defs><style type="text/css"></style></defs><path d="M853.333333 256C900.266667 256 938.666667 294.4 938.666667 341.333333L938.666667 768C938.666667 814.933333 900.266667 853.333333 853.333333 853.333333L170.666667 853.333333C123.306667 853.333333 85.333333 814.933333 85.333333 768L85.333333 256C85.333333 208.64 123.306667 170.666667 170.666667 170.666667L426.666667 170.666667 512 256 853.333333 256M810.666667 725.333333 810.666667 554.666667 768 554.666667 768 512C768 441.173333 710.826667 384 640 384 569.173333 384 512 441.173333 512 512L512 554.666667 469.333333 554.666667 469.333333 725.333333 810.666667 725.333333M640 469.333333C663.466667 469.333333 682.666667 488.533333 682.666667 512L682.666667 554.666667 597.333333 554.666667 597.333333 512C597.333333 488.533333 616.533333 469.333333 640 469.333333Z" p-id="34929"></path></svg>