<?xml version="1.0" standalone="no"?><!DOCTYPE svg PUBLIC "-//W3C//DTD SVG 1.1//EN" "http://www.w3.org/Graphics/SVG/1.1/DTD/svg11.dtd"><svg t="1557478296485" class="icon" style="" viewBox="0 0 1024 1024" version="1.1" xmlns="http://www.w3.org/2000/svg" p-id="4718" xmlns:xlink="http://www.w3.org/1999/xlink" width="16" height="16"><defs><style type="text/css"></style></defs><path d="M942.336 245.7088c-5.6832-22.528-33.536-40.9088-61.952-40.9088h-348.8768c-28.3648 0-68.096-16.2816-88.1664-36.1984l-30.5152-30.1056C392.7552 118.5792 353.0752 102.4 324.7104 102.4H158.0544c-28.416 0-54.2208 22.8864-57.344 50.8928L85.76 307.2h866.8672l-10.2912-61.4912zM993.8944 358.4H30.1056a29.696 29.696 0 0 0-29.5424 32.512l47.2576 495.0528A39.424 39.424 0 0 0 87.04 921.6h849.92a39.424 39.424 0 0 0 39.2192-35.6352l47.2576-495.0528A29.696 29.696 0 0 0 993.8944 358.4z" fill="" p-id="4719"></path></svg>